<?xml version="1.0" encoding="UTF-8" standalone="no"?>
<!DOCTYPE svg PUBLIC "-//W3C//DTD SVG 1.1//EN" "http://www.w3.org/Graphics/SVG/1.1/DTD/svg11.dtd">
<svg width="100%" height="100%" viewBox="0 0 1404 1404" version="1.1" xmlns="http://www.w3.org/2000/svg" xmlns:xlink="http://www.w3.org/1999/xlink" xml:space="preserve" xmlns:serif="http://www.serif.com/" style="fill-rule:evenodd;clip-rule:evenodd;stroke-linejoin:round;stroke-miterlimit:2;">
    <g transform="matrix(2.88262,0,0,2.88262,-176.822,-179.322)">
        <path d="M397.931,256.655C369.936,256.655 338.278,259.695 306.365,265.447C259.524,273.886 216.647,287.211 185.626,302.957C152.456,319.798 146.613,332.578 147.175,335.728C148.256,341.709 170.431,354.812 229.314,354.812C257.3,354.812 288.967,351.772 320.886,346.02C367.724,337.581 410.598,324.259 441.622,308.51C474.795,291.669 480.635,278.892 480.073,275.745C478.994,269.761 456.811,256.655 397.931,256.655M229.314,382.853C191.165,382.853 126.18,377.377 119.579,340.693C116.894,325.797 123.971,302.816 172.932,277.954C206.317,261.004 251.942,246.761 301.397,237.851C334.922,231.81 368.301,228.614 397.931,228.614C436.08,228.614 501.065,234.09 507.666,270.771C510.348,285.671 503.283,308.654 454.313,333.516C420.928,350.464 375.306,364.706 325.854,373.616C292.323,379.66 258.944,382.853 229.314,382.853" style="fill-rule:nonzero;"/>
        <path d="M369.648,146.403C352.388,146.403 308.793,198.207 275.105,291.878C258.995,336.663 249.089,380.458 247.219,415.202C245.217,452.348 253.361,463.802 256.37,464.883C256.731,465.01 257.116,465.07 257.606,465.07C274.858,465.07 318.455,413.269 352.149,319.595C368.257,274.807 378.156,231.009 380.029,196.274C382.029,159.125 373.885,147.674 370.881,146.592C370.649,146.509 370.285,146.403 369.648,146.403M257.606,493.11C253.889,493.11 250.28,492.494 246.878,491.269C232.632,486.145 216.27,468.527 219.224,413.693C221.235,376.301 231.706,329.669 248.719,282.389C278.085,200.743 326.863,118.362 369.648,118.362C373.36,118.362 376.969,118.982 380.368,120.207C394.613,125.327 410.984,142.946 408.027,197.782C406.01,235.166 395.543,281.798 378.538,329.087C349.163,410.733 300.383,493.11 257.606,493.11" style="fill-rule:nonzero;"/>
        <path d="M209.36,175.432C208.026,175.432 205.622,175.581 204.44,176.582C201.987,178.656 198.35,192.225 213.186,226.341C227.07,258.243 251.634,295.827 282.368,332.167C339.416,399.636 394.774,436.041 417.889,436.041C419.22,436.041 421.63,435.892 422.812,434.888C425.27,432.82 428.905,419.246 414.066,385.135C400.187,353.236 375.624,315.652 344.886,279.307C287.839,211.837 232.48,175.432 209.36,175.432M417.889,464.085C375.953,464.085 308.86,406.925 260.951,350.273C228.51,311.906 202.412,271.863 187.472,237.526C165.573,187.168 174.759,164.947 186.333,155.171C192.432,150.013 200.177,147.392 209.36,147.392C251.29,147.392 318.398,204.551 366.301,261.2C398.744,299.574 424.84,339.613 439.774,373.951C461.681,424.303 452.496,446.523 440.921,456.305C434.826,461.463 427.075,464.085 417.889,464.085" style="fill-rule:nonzero;"/>
        <path d="M340.66,304.98C340.66,320.984 327.688,333.958 311.681,333.958C295.683,333.958 282.711,320.984 282.711,304.98C282.711,288.979 295.683,276.004 311.681,276.004C327.688,276.004 340.66,288.979 340.66,304.98" style="fill-rule:nonzero;"/>
    </g>
</svg>
