<?xml version="1.0" encoding="UTF-8" standalone="no"?>
<!DOCTYPE svg PUBLIC "-//W3C//DTD SVG 1.1//EN" "http://www.w3.org/Graphics/SVG/1.1/DTD/svg11.dtd">
<svg width="100%" height="100%" viewBox="0 0 1404 1404" version="1.1" xmlns="http://www.w3.org/2000/svg" xmlns:xlink="http://www.w3.org/1999/xlink" xml:space="preserve" xmlns:serif="http://www.serif.com/" style="fill-rule:evenodd;clip-rule:evenodd;stroke-linejoin:round;stroke-miterlimit:2;">
    <g transform="matrix(3.21245,0,0,3.21245,-289.3,-2775.98)">
        <path d="M207.793,1250.5C199.609,1250.07 183.623,1249.06 171.602,1235.91C157.932,1220.97 159.665,1205.82 162.573,1196.37C170.036,1172.13 178.075,1165.66 216.383,1090.47C223.307,1079.57 237.026,1051.95 237.026,1051.95C237.026,1051.95 243.736,1037.61 244.916,1034.85L245.699,930.845C246.217,920.919 254.684,913.292 264.607,913.809C274.533,914.327 282.16,922.794 281.642,932.72L280.762,1036.1C280.662,1038 280.245,1042.51 280.245,1042.51L246.767,1109.78C246.767,1109.78 199.76,1192.07 198.807,1205.72C199.204,1211.41 203.334,1214.57 211.112,1214.55C270.929,1214.38 367.644,1215.06 408.938,1214.34C418.992,1214.16 421.621,1210.35 421.651,1205.18C416.636,1190.49 372.837,1112.82 372.837,1112.82C372.837,1112.82 356.829,1078.89 350.676,1065.83L338.987,1041.21L338.872,1035.5C338.966,1000.91 338.085,931.476 338.121,930.664C338.578,920.731 347.007,913.058 356.933,913.522L357.036,913.527C366.915,914.043 374.537,922.439 374.077,932.334C374.047,933.117 375.526,995.954 375.087,1033.18L383.233,1050.48C418.277,1124.87 448.385,1174.42 452.214,1189.26C454.662,1198.74 457.157,1216.92 446.378,1232.18C441.221,1239.48 431.08,1248.53 412.086,1250.21C385.502,1252.53 218.562,1250.53 211.461,1250.55C210.286,1250.58 209.056,1250.57 207.793,1250.5" style="fill-rule:nonzero;"/>
        <path d="M222.939,1148.24C213.477,1147.75 205.945,1139.96 205.903,1130.36C205.851,1120.42 213.867,1112.32 223.805,1112.28L396.909,1111.43C406.778,1111.41 414.947,1119.4 414.992,1129.34C415.044,1139.28 407.022,1147.38 397.083,1147.43L223.98,1148.27C223.634,1148.28 223.286,1148.26 222.939,1148.24" style="fill-rule:nonzero;"/>
    </g>
</svg>
