<?xml version="1.0" encoding="UTF-8" standalone="no"?>
<!DOCTYPE svg PUBLIC "-//W3C//DTD SVG 1.1//EN" "http://www.w3.org/Graphics/SVG/1.1/DTD/svg11.dtd">
<svg width="100%" height="100%" viewBox="0 0 1166 1244" version="1.1" xmlns="http://www.w3.org/2000/svg" xmlns:xlink="http://www.w3.org/1999/xlink" xml:space="preserve" xmlns:serif="http://www.serif.com/" style="fill-rule:evenodd;clip-rule:evenodd;stroke-linejoin:round;stroke-miterlimit:2;">
    <g transform="matrix(11.7847,-0.480175,0.480175,11.7847,-7798.88,-5202.53)">
        <g>
            <g transform="matrix(1,0,0,1,654.967,490.478)">
                <path d="M-0.933,65.727L69.289,68.611L71.358,12.068L57.179,-4.014L1.976,-6.269L-0.933,65.727ZM74.115,77.785C73.404,77.785 -6.652,74.54 -7.155,74.427C-9.379,73.921 -10.958,71.943 -10.958,69.661L-7.713,-11.595C-7.713,-12.965 -7.138,-14.27 -6.129,-15.196C-5.122,-16.123 -3.774,-16.589 -2.405,-16.465L59.756,-13.939C60.923,-13.838 62.014,-13.323 62.834,-12.485L79.775,6.698C80.69,7.632 81.191,8.893 81.168,10.2L79.004,72.984C78.956,75.648 76.784,77.785 74.118,77.785L74.115,77.785Z" style="fill-rule:nonzero;"/>
            </g>
            <g transform="matrix(1,0,0,1,706.159,478.272)">
                <path d="M-0.954,31.341C-1.076,31.341 -1.201,31.335 -1.325,31.326L-33.832,29.966C-36.318,29.777 -38.264,27.746 -38.346,25.254L-37.688,5.178C-37.777,2.481 -35.662,0.221 -32.964,0.133C-30.311,0 -28.008,2.158 -27.918,4.856L-28.642,20.724L-5.682,21.691L-5.159,8.353C-5.197,5.654 -3.04,3.436 -0.34,3.398L-0.271,3.398C2.397,3.398 4.577,5.542 4.616,8.218L3.933,26.386C3.952,27.758 3.395,29.075 2.394,30.014C1.483,30.87 0.286,31.341 -0.954,31.341" style="fill-rule:nonzero;"/>
            </g>
            <g transform="matrix(1,0,0,1,714.46,519.602)">
                <path d="M-2.505,45.432C-5.415,45.432 -7.808,43.11 -7.878,40.186L-6.835,12.069L-42.327,10.72L-43.648,37.796C-43.621,40.765 -46.009,43.191 -48.978,43.216L-49.024,43.216C-51.971,43.216 -54.373,40.839 -54.4,37.882L-53.143,5.293C-53.155,3.787 -52.536,2.344 -51.434,1.318C-50.336,0.29 -48.855,-0.311 -47.349,-0.197L-1.165,1.722C1.587,1.933 3.73,4.194 3.795,6.954L2.871,39.926C2.943,42.895 0.596,45.36 -2.373,45.43C-2.417,45.432 -2.461,45.432 -2.505,45.432" style="fill-rule:nonzero;"/>
            </g>
        </g>
    </g>
</svg>
