<?xml version="1.0" encoding="UTF-8" standalone="no"?>
<!DOCTYPE svg PUBLIC "-//W3C//DTD SVG 1.1//EN" "http://www.w3.org/Graphics/SVG/1.1/DTD/svg11.dtd">
<svg width="100%" height="100%" viewBox="0 0 726 962" version="1.1" xmlns="http://www.w3.org/2000/svg" xmlns:xlink="http://www.w3.org/1999/xlink" xml:space="preserve" xmlns:serif="http://www.serif.com/" style="fill-rule:evenodd;clip-rule:evenodd;stroke-linejoin:round;stroke-miterlimit:2;">
    <g transform="matrix(0.999998,-0.00204483,0.00204483,0.999998,-267.939,13.3144)">
        <g id="g273">
            <path id="path265" d="M557.548,946.387C519.957,945.146 472.854,940.352 455.918,936.042C414.696,925.553 376.088,899.643 346.234,862.433C324.342,835.147 305.898,800.82 297.421,771.586C288.114,739.491 284.255,696.021 288.574,671.939C291.972,652.996 300.873,636.36 312.949,626.383C336.597,606.844 377.846,600.163 427.048,607.9C493.609,618.366 548.589,639.016 586.965,667.961L595.771,674.603L595.041,616.771C594.639,584.963 594.898,558.153 594.394,557.191C593.808,556.07 592.307,555.441 590.225,555.441C580.714,555.441 517.72,542.179 495.048,535.295C466.363,526.585 431.769,504.187 407.324,478.496C380.923,450.748 369.456,424.343 363.656,377.939C359.965,348.406 356.134,281.77 357.613,274.03C360.629,258.251 373.071,245.2 388.667,241.457C394.942,239.951 859.251,240.791 873.362,242.246C891.424,244.109 902.223,251.229 909.168,265.854C914.799,277.711 915.488,286.733 912.707,312.235C911.465,323.622 909.356,344.414 908.02,358.439C905.076,389.336 903.919,398.367 901.489,409.439C896.48,432.262 889.886,454.728 874.392,473.612C855.998,496.031 829.28,520.403 804.859,529.728C753.691,549.269 704.562,554.241 680.127,556.578C676.984,556.878 676.986,555.727 676.215,558.788C674.675,564.903 675.889,592.276 675.889,592.276C676.251,614.546 676.548,642.64 676.548,654.707L676.548,676.647L681.298,672.511C711.532,646.189 732.152,633.194 756.697,624.992C777.806,617.939 809.583,611.075 841.048,606.772C860.775,604.075 901.541,604.266 914.548,607.116C927.265,609.903 938.909,614.534 947.757,620.323C962.551,630.004 977.573,649.721 983.259,666.922C985.741,674.43 985.909,676.113 985.911,693.439C985.917,736.238 977.604,772.585 959.035,810.939C939.1,852.115 905.717,890.648 871.068,912.477C845.508,928.58 814.838,937.295 764.048,942.885C723.932,947.3 720.315,947.437 648.548,947.264C610.323,947.172 569.373,946.778 557.548,946.387ZM739.799,864.392C805.556,857.744 822.863,852.024 847.617,828.761C882.096,796.357 903.011,750.638 905.235,702.809L905.846,689.68L903.36,688.051C899.487,685.514 882.813,684.319 867.3,685.467C839.824,687.502 806.263,693.642 784.548,700.608C767.871,705.958 752.631,716.281 730.106,737.487C707.626,758.65 696.351,772.336 681.992,795.89C671.586,812.961 666.808,818.722 659.336,823.207C639.983,834.823 614.636,827.949 603.022,807.936C598.59,800.298 554.107,746.129 546.641,739.277C520.114,714.935 470.95,695.839 413.048,687.388C401.157,685.653 395.354,685.311 385.048,685.739C366.529,686.508 367.548,685.884 367.548,696.449C367.548,715.41 371.077,737.924 376.675,754.688C384.737,778.826 405.911,811.647 424.309,828.522C439.126,842.112 458.727,853.563 473.665,857.355C482.53,859.606 499.957,861.701 528.048,863.894C555.744,866.056 553.912,866.018 641.299,866.24C713.755,866.424 721.05,866.287 739.799,864.392ZM652.542,476.92C687.488,472.97 709.515,469.238 733.042,463.28C755.712,457.54 771.265,452.309 784.529,445.774C804.992,435.693 815.8,412.485 823.586,388.229C826.353,379.611 830.537,323.229 829.871,322.152C829.233,321.119 441.466,322.262 440.382,323.3C439.553,324.094 441.959,356.037 443.987,371.162C445.695,383.897 448.592,396.041 451.592,403.04C458.69,419.6 484.283,442.629 508.202,453.979C517.392,458.341 538.252,463.865 570.548,470.489C593.895,475.278 594.179,475.31 614.048,475.373C625.857,475.41 644.571,477.821 652.542,476.92ZM465.046,214.443C393.946,213.952 389.812,213.825 385.546,212.003C372.615,206.482 364.444,197.171 360.906,183.925C356.182,166.241 365.28,146.852 382.312,138.304L389.046,134.925L484.546,134.334L484.558,89.129C484.567,54.614 484.886,42.742 485.906,38.925C490.155,23.018 502.401,11.983 518.951,9.148C535.566,6.302 553.142,15.598 560.777,31.27L564.019,37.925L564.681,68.925C565.045,85.975 565.388,107.687 565.445,117.175L565.546,134.425L714.546,134.425L714.546,89.106C714.546,50.556 714.785,42.977 716.142,38.356C724.912,8.497 762.523,-0.482 783.752,22.214C786.182,24.812 789.493,29.634 791.108,32.931L794.046,38.925L795.046,134.925L883.046,135.925L889.647,139.238C909.526,149.218 917.895,172.261 908.744,191.816C903.641,202.721 896.024,209.558 884.745,213.358C878.628,215.418 878.096,215.424 709.328,215.193C616.223,215.066 506.296,214.728 465.046,214.443Z" style="fill-rule:nonzero;"/>
        </g>
    </g>
</svg>
