<?xml version="1.0" encoding="UTF-8" standalone="no"?><!DOCTYPE svg PUBLIC "-//W3C//DTD SVG 1.1//EN" "http://www.w3.org/Graphics/SVG/1.1/DTD/svg11.dtd"><svg width="100%" height="100%" viewBox="0 0 402 402" version="1.1" xmlns="http://www.w3.org/2000/svg" xmlns:xlink="http://www.w3.org/1999/xlink" xml:space="preserve" xmlns:serif="http://www.serif.com/" style="fill-rule:evenodd;clip-rule:evenodd;"><path d="M397,201c0,108.2 -87.7,196 -196,196c-0.023,0 -0.047,0 -0.07,0c-107.484,0 -195.93,-88.446 -195.93,-195.93c-0,-0.023 -0,-0.047 0,-0.07c0,-108.2 87.7,-196 196,-196c0.023,-0 0.047,-0 0.07,-0c107.484,-0 195.93,88.446 195.93,195.93c0,0.023 0,0.047 0,0.07Z" style="fill:#fff;fill-rule:nonzero;stroke:#000080;stroke-width:10px;"/><path d="M312.12,128.338l0,-25.646c0,-17.096 -17.951,-34.193 -111.13,-34.193c-93.178,-0 -111.13,17.097 -111.13,34.193l-0,25.646c-9.403,-0 -17.097,7.694 -17.097,17.097l-0,17.097c-0,9.403 7.694,17.097 17.097,17.097l-0,94.033c-0,9.403 5.129,17.952 12.823,22.226l-0,16.242c-0,11.968 9.403,21.371 21.371,21.371c11.968,0 21.371,-9.403 21.371,-21.371l0,-12.822l111.13,-0l0,12.822c0,11.968 9.404,21.371 21.371,21.371c11.968,0 21.372,-9.403 21.372,-21.371l-0,-16.242c7.693,-4.274 12.822,-12.823 12.822,-22.226l0,-94.033c9.404,-0 17.097,-7.694 17.097,-17.097l0,-17.097c0,-9.403 -7.693,-17.097 -17.097,-17.097Zm-170.969,-34.194l119.678,-0c5.13,-0 8.549,3.419 8.549,8.548c-0,5.13 -3.419,8.549 -8.549,8.549l-119.678,-0c-5.129,-0 -8.549,-3.419 -8.549,-8.549c0,-5.129 3.42,-8.548 8.549,-8.548Zm-17.097,188.067c-9.404,-0 -17.097,-7.694 -17.097,-17.097c-0,-9.404 7.693,-17.097 17.097,-17.097c9.403,-0 17.097,7.693 17.097,17.097c-0,9.403 -7.694,17.097 -17.097,17.097Zm153.872,-0c-9.403,-0 -17.097,-7.694 -17.097,-17.097c0,-9.404 7.694,-17.097 17.097,-17.097c9.404,-0 17.097,7.693 17.097,17.097c0,9.403 -7.693,17.097 -17.097,17.097Zm17.097,-85.485c0,13.677 -11.113,25.645 -25.645,25.645l-136.776,0c-14.532,0 -25.645,-11.968 -25.645,-25.645l-0,-42.743c-0,-14.532 11.113,-25.645 25.645,-25.645l136.776,-0c14.532,-0 25.645,11.113 25.645,25.645l0,42.743Z" style="fill:#000080;fill-rule:nonzero;"/></svg>