<svg xmlns="http://www.w3.org/2000/svg" viewBox="0 0 402 402"><defs><style>.a{fill:#fff;stroke:navy;stroke-width:10px;}.b{fill:navy;}</style></defs><title>Stockholm_commuter_rail_symbol_2024</title><path class="a" d="M421,225.1c0,108.2-87.7,196-196,196a195.93,195.93,0,0,1-196-196h0c0-108.2,87.7-196,196-196A195.93,195.93,0,0,1,421,225.1Z" transform="translate(-24 -24.1)"/><path class="b" d="M196.9,107.6h56.2a7.6,7.6,0,0,0,5.2-2.1,7.42,7.42,0,0,0,2.1-5.2,7.34,7.34,0,0,0-7.3-7.3H196.9a7.34,7.34,0,0,0-7.3,7.3,7.17,7.17,0,0,0,7.3,7.3Z" transform="translate(-24 -24.1)"/><path class="b" d="M307.6,353l-27.5-35.5a5.63,5.63,0,0,1,1.6-8.3,42.57,42.57,0,0,0,20.1-32.4l3-32.8a554.66,554.66,0,0,0,2.3-56.2l-.3-29.7a42.59,42.59,0,0,0-42.5-42.2H185.7a42.53,42.53,0,0,0-42.5,42.2l-.3,29.7a555.86,555.86,0,0,0,2.3,56.2l3,32.8a42.57,42.57,0,0,0,20.1,32.4,5.65,5.65,0,0,1,1.6,8.3L142.4,353a2.86,2.86,0,0,0,2.2,4.6h13.5a2.66,2.66,0,0,0,2.2-1.1l5.3-6.9a2.79,2.79,0,0,1,2.2-1.1H282a2.66,2.66,0,0,1,2.2,1.1l5.3,6.9a2.79,2.79,0,0,0,2.2,1.1h13.5A2.88,2.88,0,0,0,307.6,353ZM225,126.6a8.4,8.4,0,1,1-8.4,8.4A8.45,8.45,0,0,1,225,126.6Zm-56.9,42.9a14.14,14.14,0,0,1,13.8-17.3h86.2a14.14,14.14,0,0,1,13.8,17.3l-13.4,59.4A14.2,14.2,0,0,1,254.7,240H195.3a14.12,14.12,0,0,1-13.8-11.1Zm3.7,106.8A10.8,10.8,0,1,1,182.6,287,10.61,10.61,0,0,1,171.8,276.3ZM266,333.5H183.9a2.81,2.81,0,0,1-2.2-4.6l3.6-4.7a2.79,2.79,0,0,1,2.2-1.1h74.8a2.66,2.66,0,0,1,2.2,1.1l3.6,4.7A2.76,2.76,0,0,1,266,333.5Zm1.4-46.4a10.75,10.75,0,1,1,10.8-10.7A10.8,10.8,0,0,1,267.4,287.1Z" transform="translate(-24 -24.1)"/></svg>